# xmcd
#
# Track frame offsets: 
#        150
#        26775
#        46992
#        66362
#        118020
#        138185
#        168237
#        189297
#        216172
#        243662
#        270007
#        307765
#
# Disc length: 4434 seconds
#
# Revision: 1
# Processed by: cddbd v1.5.2PL0 Copyright (c) Steve Scherf et al.
# Submitted via: ExactAudioCopy v0.99pb4
#
DISCID=9f11500c
DTITLE=Jimi "Prime Time" Smith - Give Me Wings
DYEAR=1998
DGENRE=Blues
TTITLE0=Killer Joe
TTITLE1=U for Me
TTITLE2=Give Me Wings
TTITLE3=If Trouble Was Money
TTITLE4=Tipping
TTITLE5=Walking the Dog
TTITLE6=When You're Doin' Alright
TTITLE7=Soul Fixin' Man
TTITLE8=Out on a Line
TTITLE9=One Woman Too Many
TTITLE10=I'll Play the Blues for You
TTITLE11=Last Night
EXTD=
EXTT0=
EXTT1=
EXTT2=
EXTT3=
EXTT4=
EXTT5=
EXTT6=
EXTT7=
EXTT8=
EXTT9=
EXTT10=
EXTT11=
PLAYORDER=
